M48
;GenerationSoftware,Autodesk,EAGLE,9.7.0*%
;CreationDate,2020-08-16T20:51:52Z*%
FMAT,2
ICI,OFF
METRIC,TZ,000.000
T9C0.787
T8C0.800
T7C0.813
T6C1.000
T5C1.016
T4C1.100
T3C1.372
T2C2.500
T1C3.200
%
G90
M71
T1
X3810Y59690
X40640Y3810
X40640Y59690
X3810Y3810
T2
X37719Y15548
T3
X34214Y59690
X24206Y59690
T4
X37719Y18248
X37719Y13248
T5
X11430Y60960
X6833Y18491
X2540Y39370
X2311Y18491
X6833Y11989
X2311Y11989
X2540Y41910
X16510Y60960
X2540Y36830
X2540Y34290
X2540Y31750
X2540Y29210
X2540Y26670
X13970Y60960
T6
X26035Y27305
X26035Y14605
X26035Y17145
X26035Y19685
X26035Y22225
X26035Y24765
X37592Y23495
X37592Y28321
X18415Y22225
X18415Y17145
X18415Y19685
X26035Y12065
X26035Y29845
X18415Y27305
X18415Y12065
X18415Y24765
X18415Y14605
X18415Y29845
T7
X25400Y49530
X31750Y46990
X38100Y49530
X38100Y46990
X17780Y52070
X15240Y52070
X2540Y52070
X12700Y52070
X31750Y49530
X25400Y46990
T8
X31217Y60960
X27203Y58420
X29210Y58420
X31217Y58420
X27203Y60960
T9
X29210Y60960
M30