G04 EAGLE Gerber RS-274X export*
G75*
%MOMM*%
%FSLAX34Y34*%
%LPD*%
%INTop Copper*%
%IPPOS*%
%AMOC8*
5,1,8,0,0,1.08239X$1,22.5*%
G01*
%ADD10P,1.704548X8X292.500000*%
%ADD11C,1.574800*%
%ADD12P,1.429621X8X292.500000*%
%ADD13C,1.650000*%
%ADD14C,1.524000*%
%ADD15C,1.676400*%
%ADD16C,1.508000*%
%ADD17P,1.429621X8X202.500000*%
%ADD18P,1.429621X8X22.500000*%
%ADD19C,1.308000*%
%ADD20C,1.295400*%
%ADD21C,2.057400*%
%ADD22C,0.304800*%
D10*
X254000Y469900D03*
D11*
X254000Y495300D03*
D12*
X317500Y495300D03*
X317500Y469900D03*
X381000Y495300D03*
X381000Y469900D03*
D13*
X377190Y182480D03*
X377190Y132480D03*
D14*
X33020Y419100D02*
X17780Y419100D01*
X17780Y393700D02*
X33020Y393700D01*
X33020Y368300D02*
X17780Y368300D01*
X17780Y342900D02*
X33020Y342900D01*
X33020Y317500D02*
X17780Y317500D01*
X17780Y292100D02*
X33020Y292100D01*
X33020Y266700D02*
X17780Y266700D01*
D15*
X375920Y234950D03*
X375920Y283210D03*
D14*
X68326Y192532D02*
X68326Y177292D01*
X23114Y177292D02*
X23114Y192532D01*
X68326Y127508D02*
X68326Y112268D01*
X23114Y112268D02*
X23114Y127508D01*
D16*
X176610Y298450D02*
X191690Y298450D01*
X191690Y273050D02*
X176610Y273050D01*
X176610Y146050D02*
X191690Y146050D01*
X191690Y120650D02*
X176610Y120650D01*
X176610Y247650D02*
X191690Y247650D01*
X191690Y222250D02*
X176610Y222250D01*
X176610Y171450D02*
X191690Y171450D01*
X191690Y196850D02*
X176610Y196850D01*
X252810Y120650D02*
X267890Y120650D01*
X267890Y146050D02*
X252810Y146050D01*
X252810Y171450D02*
X267890Y171450D01*
X267890Y196850D02*
X252810Y196850D01*
X252810Y222250D02*
X267890Y222250D01*
X267890Y247650D02*
X252810Y247650D01*
X252810Y273050D02*
X267890Y273050D01*
X267890Y298450D02*
X252810Y298450D01*
D14*
X165100Y601980D02*
X165100Y617220D01*
X139700Y617220D02*
X139700Y601980D01*
X114300Y601980D02*
X114300Y617220D01*
D17*
X177800Y520700D03*
X152400Y520700D03*
D18*
X25400Y520700D03*
X127000Y520700D03*
D19*
X272034Y609600D03*
D20*
X292100Y609600D03*
D19*
X312166Y609600D03*
X272034Y584200D03*
X292100Y584200D03*
X312166Y584200D03*
D21*
X242062Y596900D03*
X342138Y596900D03*
D22*
X254000Y495300D02*
X213360Y495300D01*
X254000Y495300D02*
X317500Y495300D01*
X381000Y495300D01*
X228600Y279400D02*
X228600Y203200D01*
X228600Y279400D02*
X228600Y330200D01*
X234950Y196850D02*
X260350Y196850D01*
X234950Y196850D02*
X228600Y203200D01*
X234950Y273050D02*
X260350Y273050D01*
X234950Y273050D02*
X228600Y279400D01*
X213360Y345440D02*
X213360Y495300D01*
X213360Y345440D02*
X228600Y330200D01*
X213360Y495300D02*
X177800Y495300D01*
X177800Y520700D01*
X312166Y584200D02*
X312166Y609600D01*
X312166Y584200D02*
X312166Y556006D01*
X299720Y543560D01*
X224790Y543560D01*
X213360Y532130D01*
X213360Y495300D01*
X68326Y184912D02*
X68326Y119888D01*
X119380Y96520D02*
X208280Y96520D01*
X96012Y119888D02*
X68326Y119888D01*
X96012Y119888D02*
X119380Y96520D01*
X184150Y146050D02*
X209550Y146050D01*
X215900Y139700D01*
X215900Y104140D01*
X208280Y96520D01*
X260350Y247650D02*
X311150Y247650D01*
X346710Y283210D02*
X375920Y283210D01*
X346710Y283210D02*
X311150Y247650D01*
X350520Y234950D02*
X375920Y234950D01*
X350520Y234950D02*
X337820Y222250D01*
X260350Y222250D01*
X375920Y182646D02*
X377190Y182480D01*
X375920Y182646D02*
X375920Y234950D01*
X184150Y171450D02*
X160020Y171450D01*
X138430Y193040D02*
X138430Y396240D01*
X115570Y419100D01*
X25400Y419100D01*
X138430Y193040D02*
X160020Y171450D01*
X152400Y520700D02*
X127000Y520700D01*
X292100Y584200D02*
X292100Y609600D01*
X292100Y584200D02*
X292100Y571500D01*
X279400Y558800D01*
X152400Y558800D02*
X139700Y571500D01*
X139700Y609600D01*
X152400Y558800D02*
X279400Y558800D01*
X184150Y120650D02*
X142240Y120650D01*
X121920Y140970D01*
X121920Y242570D02*
X97790Y266700D01*
X25400Y266700D01*
X121920Y242570D02*
X121920Y140970D01*
M02*
