G04 EAGLE Gerber RS-274X export*
G75*
%MOMM*%
%FSLAX34Y34*%
%LPD*%
%IN*%
%IPPOS*%
%AMOC8*
5,1,8,0,0,1.08239X$1,22.5*%
G01*
%ADD10C,0.254000*%
D10*
X0Y0D02*
X444500Y0D01*
X444500Y635000D01*
X0Y635000D01*
X0Y0D01*
X376699Y142980D02*
X375720Y143057D01*
X374750Y143211D01*
X373794Y143440D01*
X372860Y143744D01*
X371953Y144119D01*
X371078Y144565D01*
X370240Y145079D01*
X369445Y145656D01*
X368698Y146294D01*
X368004Y146988D01*
X367366Y147735D01*
X366789Y148530D01*
X366275Y149368D01*
X365829Y150243D01*
X365454Y151150D01*
X365150Y152084D01*
X364921Y153040D01*
X364767Y154010D01*
X364690Y154989D01*
X364690Y155971D01*
X364767Y156950D01*
X364921Y157921D01*
X365150Y158876D01*
X365454Y159810D01*
X365829Y160717D01*
X366275Y161592D01*
X366789Y162430D01*
X367366Y163225D01*
X368004Y163972D01*
X368698Y164666D01*
X369445Y165304D01*
X370240Y165881D01*
X371078Y166395D01*
X371953Y166841D01*
X372860Y167216D01*
X373794Y167520D01*
X374750Y167749D01*
X375720Y167903D01*
X376699Y167980D01*
X377681Y167980D01*
X378660Y167903D01*
X379631Y167749D01*
X380586Y167520D01*
X381520Y167216D01*
X382427Y166841D01*
X383302Y166395D01*
X384140Y165881D01*
X384935Y165304D01*
X385682Y164666D01*
X386376Y163972D01*
X387014Y163225D01*
X387591Y162430D01*
X388105Y161592D01*
X388551Y160717D01*
X388926Y159810D01*
X389230Y158876D01*
X389459Y157921D01*
X389613Y156950D01*
X389690Y155971D01*
X389690Y154989D01*
X389613Y154010D01*
X389459Y153040D01*
X389230Y152084D01*
X388926Y151150D01*
X388551Y150243D01*
X388105Y149368D01*
X387591Y148530D01*
X387014Y147735D01*
X386376Y146988D01*
X385682Y146294D01*
X384935Y145656D01*
X384140Y145079D01*
X383302Y144565D01*
X382427Y144119D01*
X381520Y143744D01*
X380586Y143440D01*
X379631Y143211D01*
X378660Y143057D01*
X377681Y142980D01*
X376699Y142980D01*
X54100Y596376D02*
X54032Y595331D01*
X53895Y594292D01*
X53690Y593265D01*
X53419Y592253D01*
X53083Y591261D01*
X52682Y590293D01*
X52218Y589354D01*
X51695Y588446D01*
X51113Y587575D01*
X50475Y586744D01*
X49784Y585957D01*
X49043Y585216D01*
X48256Y584525D01*
X47425Y583888D01*
X46554Y583306D01*
X45646Y582782D01*
X44707Y582318D01*
X43739Y581917D01*
X42747Y581581D01*
X41735Y581310D01*
X40708Y581105D01*
X39669Y580969D01*
X38624Y580900D01*
X37576Y580900D01*
X36531Y580969D01*
X35492Y581105D01*
X34465Y581310D01*
X33453Y581581D01*
X32461Y581917D01*
X31493Y582318D01*
X30554Y582782D01*
X29646Y583306D01*
X28775Y583888D01*
X27944Y584525D01*
X27157Y585216D01*
X26416Y585957D01*
X25725Y586744D01*
X25088Y587575D01*
X24506Y588446D01*
X23982Y589354D01*
X23518Y590293D01*
X23117Y591261D01*
X22781Y592253D01*
X22510Y593265D01*
X22305Y594292D01*
X22169Y595331D01*
X22100Y596376D01*
X22100Y597424D01*
X22169Y598469D01*
X22305Y599508D01*
X22510Y600535D01*
X22781Y601547D01*
X23117Y602539D01*
X23518Y603507D01*
X23982Y604446D01*
X24506Y605354D01*
X25088Y606225D01*
X25725Y607056D01*
X26416Y607843D01*
X27157Y608584D01*
X27944Y609275D01*
X28775Y609913D01*
X29646Y610495D01*
X30554Y611018D01*
X31493Y611482D01*
X32461Y611883D01*
X33453Y612219D01*
X34465Y612490D01*
X35492Y612695D01*
X36531Y612832D01*
X37576Y612900D01*
X38624Y612900D01*
X39669Y612832D01*
X40708Y612695D01*
X41735Y612490D01*
X42747Y612219D01*
X43739Y611883D01*
X44707Y611482D01*
X45646Y611018D01*
X46554Y610495D01*
X47425Y609913D01*
X48256Y609275D01*
X49043Y608584D01*
X49784Y607843D01*
X50475Y607056D01*
X51113Y606225D01*
X51695Y605354D01*
X52218Y604446D01*
X52682Y603507D01*
X53083Y602539D01*
X53419Y601547D01*
X53690Y600535D01*
X53895Y599508D01*
X54032Y598469D01*
X54100Y597424D01*
X54100Y596376D01*
X422400Y37576D02*
X422332Y36531D01*
X422195Y35492D01*
X421990Y34465D01*
X421719Y33453D01*
X421383Y32461D01*
X420982Y31493D01*
X420518Y30554D01*
X419995Y29646D01*
X419413Y28775D01*
X418775Y27944D01*
X418084Y27157D01*
X417343Y26416D01*
X416556Y25725D01*
X415725Y25088D01*
X414854Y24506D01*
X413946Y23982D01*
X413007Y23518D01*
X412039Y23117D01*
X411047Y22781D01*
X410035Y22510D01*
X409008Y22305D01*
X407969Y22169D01*
X406924Y22100D01*
X405876Y22100D01*
X404831Y22169D01*
X403792Y22305D01*
X402765Y22510D01*
X401753Y22781D01*
X400761Y23117D01*
X399793Y23518D01*
X398854Y23982D01*
X397946Y24506D01*
X397075Y25088D01*
X396244Y25725D01*
X395457Y26416D01*
X394716Y27157D01*
X394025Y27944D01*
X393388Y28775D01*
X392806Y29646D01*
X392282Y30554D01*
X391818Y31493D01*
X391417Y32461D01*
X391081Y33453D01*
X390810Y34465D01*
X390605Y35492D01*
X390469Y36531D01*
X390400Y37576D01*
X390400Y38624D01*
X390469Y39669D01*
X390605Y40708D01*
X390810Y41735D01*
X391081Y42747D01*
X391417Y43739D01*
X391818Y44707D01*
X392282Y45646D01*
X392806Y46554D01*
X393388Y47425D01*
X394025Y48256D01*
X394716Y49043D01*
X395457Y49784D01*
X396244Y50475D01*
X397075Y51113D01*
X397946Y51695D01*
X398854Y52218D01*
X399793Y52682D01*
X400761Y53083D01*
X401753Y53419D01*
X402765Y53690D01*
X403792Y53895D01*
X404831Y54032D01*
X405876Y54100D01*
X406924Y54100D01*
X407969Y54032D01*
X409008Y53895D01*
X410035Y53690D01*
X411047Y53419D01*
X412039Y53083D01*
X413007Y52682D01*
X413946Y52218D01*
X414854Y51695D01*
X415725Y51113D01*
X416556Y50475D01*
X417343Y49784D01*
X418084Y49043D01*
X418775Y48256D01*
X419413Y47425D01*
X419995Y46554D01*
X420518Y45646D01*
X420982Y44707D01*
X421383Y43739D01*
X421719Y42747D01*
X421990Y41735D01*
X422195Y40708D01*
X422332Y39669D01*
X422400Y38624D01*
X422400Y37576D01*
X422400Y596376D02*
X422332Y595331D01*
X422195Y594292D01*
X421990Y593265D01*
X421719Y592253D01*
X421383Y591261D01*
X420982Y590293D01*
X420518Y589354D01*
X419995Y588446D01*
X419413Y587575D01*
X418775Y586744D01*
X418084Y585957D01*
X417343Y585216D01*
X416556Y584525D01*
X415725Y583888D01*
X414854Y583306D01*
X413946Y582782D01*
X413007Y582318D01*
X412039Y581917D01*
X411047Y581581D01*
X410035Y581310D01*
X409008Y581105D01*
X407969Y580969D01*
X406924Y580900D01*
X405876Y580900D01*
X404831Y580969D01*
X403792Y581105D01*
X402765Y581310D01*
X401753Y581581D01*
X400761Y581917D01*
X399793Y582318D01*
X398854Y582782D01*
X397946Y583306D01*
X397075Y583888D01*
X396244Y584525D01*
X395457Y585216D01*
X394716Y585957D01*
X394025Y586744D01*
X393388Y587575D01*
X392806Y588446D01*
X392282Y589354D01*
X391818Y590293D01*
X391417Y591261D01*
X391081Y592253D01*
X390810Y593265D01*
X390605Y594292D01*
X390469Y595331D01*
X390400Y596376D01*
X390400Y597424D01*
X390469Y598469D01*
X390605Y599508D01*
X390810Y600535D01*
X391081Y601547D01*
X391417Y602539D01*
X391818Y603507D01*
X392282Y604446D01*
X392806Y605354D01*
X393388Y606225D01*
X394025Y607056D01*
X394716Y607843D01*
X395457Y608584D01*
X396244Y609275D01*
X397075Y609913D01*
X397946Y610495D01*
X398854Y611018D01*
X399793Y611482D01*
X400761Y611883D01*
X401753Y612219D01*
X402765Y612490D01*
X403792Y612695D01*
X404831Y612832D01*
X405876Y612900D01*
X406924Y612900D01*
X407969Y612832D01*
X409008Y612695D01*
X410035Y612490D01*
X411047Y612219D01*
X412039Y611883D01*
X413007Y611482D01*
X413946Y611018D01*
X414854Y610495D01*
X415725Y609913D01*
X416556Y609275D01*
X417343Y608584D01*
X418084Y607843D01*
X418775Y607056D01*
X419413Y606225D01*
X419995Y605354D01*
X420518Y604446D01*
X420982Y603507D01*
X421383Y602539D01*
X421719Y601547D01*
X421990Y600535D01*
X422195Y599508D01*
X422332Y598469D01*
X422400Y597424D01*
X422400Y596376D01*
X54100Y37576D02*
X54032Y36531D01*
X53895Y35492D01*
X53690Y34465D01*
X53419Y33453D01*
X53083Y32461D01*
X52682Y31493D01*
X52218Y30554D01*
X51695Y29646D01*
X51113Y28775D01*
X50475Y27944D01*
X49784Y27157D01*
X49043Y26416D01*
X48256Y25725D01*
X47425Y25088D01*
X46554Y24506D01*
X45646Y23982D01*
X44707Y23518D01*
X43739Y23117D01*
X42747Y22781D01*
X41735Y22510D01*
X40708Y22305D01*
X39669Y22169D01*
X38624Y22100D01*
X37576Y22100D01*
X36531Y22169D01*
X35492Y22305D01*
X34465Y22510D01*
X33453Y22781D01*
X32461Y23117D01*
X31493Y23518D01*
X30554Y23982D01*
X29646Y24506D01*
X28775Y25088D01*
X27944Y25725D01*
X27157Y26416D01*
X26416Y27157D01*
X25725Y27944D01*
X25088Y28775D01*
X24506Y29646D01*
X23982Y30554D01*
X23518Y31493D01*
X23117Y32461D01*
X22781Y33453D01*
X22510Y34465D01*
X22305Y35492D01*
X22169Y36531D01*
X22100Y37576D01*
X22100Y38624D01*
X22169Y39669D01*
X22305Y40708D01*
X22510Y41735D01*
X22781Y42747D01*
X23117Y43739D01*
X23518Y44707D01*
X23982Y45646D01*
X24506Y46554D01*
X25088Y47425D01*
X25725Y48256D01*
X26416Y49043D01*
X27157Y49784D01*
X27944Y50475D01*
X28775Y51113D01*
X29646Y51695D01*
X30554Y52218D01*
X31493Y52682D01*
X32461Y53083D01*
X33453Y53419D01*
X34465Y53690D01*
X35492Y53895D01*
X36531Y54032D01*
X37576Y54100D01*
X38624Y54100D01*
X39669Y54032D01*
X40708Y53895D01*
X41735Y53690D01*
X42747Y53419D01*
X43739Y53083D01*
X44707Y52682D01*
X45646Y52218D01*
X46554Y51695D01*
X47425Y51113D01*
X48256Y50475D01*
X49043Y49784D01*
X49784Y49043D01*
X50475Y48256D01*
X51113Y47425D01*
X51695Y46554D01*
X52218Y45646D01*
X52682Y44707D01*
X53083Y43739D01*
X53419Y42747D01*
X53690Y41735D01*
X53895Y40708D01*
X54032Y39669D01*
X54100Y38624D01*
X54100Y37576D01*
M02*
